solid OpenSCAD_Model
  facet normal 0 0 -1
    outer loop
      vertex 9 28.9859 0
      vertex 23 34.9859 0
      vertex 23 28.9859 0
    endloop
  endfacet
  facet normal -0 0 -1
    outer loop
      vertex 23 34.9859 0
      vertex 9 28.9859 0
      vertex 9 34.9859 0
    endloop
  endfacet
  facet normal 0 0 -1
    outer loop
      vertex 29 28.9859 0
      vertex 43 34.9859 0
      vertex 43 28.9859 0
    endloop
  endfacet
  facet normal -0 0 -1
    outer loop
      vertex 43 34.9859 0
      vertex 29 28.9859 0
      vertex 29 34.9859 0
    endloop
  endfacet
  facet normal 0 0 -1
    outer loop
      vertex 49 28.9859 0
      vertex 63 34.9859 0
      vertex 63 28.9859 0
    endloop
  endfacet
  facet normal -0 0 -1
    outer loop
      vertex 63 34.9859 0
      vertex 49 28.9859 0
      vertex 49 34.9859 0
    endloop
  endfacet
  facet normal 0 0 -1
    outer loop
      vertex 69 28.9859 0
      vertex 83 34.9859 0
      vertex 83 28.9859 0
    endloop
  endfacet
  facet normal -0 0 -1
    outer loop
      vertex 83 34.9859 0
      vertex 69 28.9859 0
      vertex 69 34.9859 0
    endloop
  endfacet
  facet normal 0 0 -1
    outer loop
      vertex 87 0 0
      vertex 92 5 0
      vertex 91.9039 4.02455 0
    endloop
  endfacet
  facet normal 0 0 -1
    outer loop
      vertex 92 5 0
      vertex 83 28.9859 0
      vertex 92 58.9719 0
    endloop
  endfacet
  facet normal 0 0 -1
    outer loop
      vertex 87 0 0
      vertex 91.9039 4.02455 0
      vertex 91.6194 3.08659 0
    endloop
  endfacet
  facet normal 0 0 -1
    outer loop
      vertex 83 34.9859 0
      vertex 92 58.9719 0
      vertex 83 28.9859 0
    endloop
  endfacet
  facet normal 0 0 -1
    outer loop
      vertex 87 0 0
      vertex 91.6194 3.08659 0
      vertex 91.1573 2.22215 0
    endloop
  endfacet
  facet normal 0 0 -1
    outer loop
      vertex 83 48.9859 0
      vertex 92 58.9719 0
      vertex 83 34.9859 0
    endloop
  endfacet
  facet normal 0 0 -1
    outer loop
      vertex 87 0 0
      vertex 91.1573 2.22215 0
      vertex 90.5355 1.46448 0
    endloop
  endfacet
  facet normal 0 -0 -1
    outer loop
      vertex 87 63.9719 0
      vertex 92 58.9719 0
      vertex 83 48.9859 0
    endloop
  endfacet
  facet normal 0 0 -1
    outer loop
      vertex 87 0 0
      vertex 90.5355 1.46448 0
      vertex 89.7778 0.842667 0
    endloop
  endfacet
  facet normal 0 0 -1
    outer loop
      vertex 92 58.9719 0
      vertex 87 63.9719 0
      vertex 91.9039 59.9473 0
    endloop
  endfacet
  facet normal 0 0 -1
    outer loop
      vertex 87 0 0
      vertex 89.7778 0.842667 0
      vertex 88.9134 0.380615 0
    endloop
  endfacet
  facet normal 0 0 -1
    outer loop
      vertex 91.9039 59.9473 0
      vertex 87 63.9719 0
      vertex 91.6194 60.8853 0
    endloop
  endfacet
  facet normal 0 0 -1
    outer loop
      vertex 87 0 0
      vertex 88.9134 0.380615 0
      vertex 87.9754 0.0960846 0
    endloop
  endfacet
  facet normal 0 0 -1
    outer loop
      vertex 91.6194 60.8853 0
      vertex 87 63.9719 0
      vertex 91.1573 61.7497 0
    endloop
  endfacet
  facet normal -0 0 -1
    outer loop
      vertex 92 5 0
      vertex 87 0 0
      vertex 83 14.9859 0
    endloop
  endfacet
  facet normal 0 0 -1
    outer loop
      vertex 91.1573 61.7497 0
      vertex 87 63.9719 0
      vertex 90.5355 62.5074 0
    endloop
  endfacet
  facet normal 0 0 -1
    outer loop
      vertex 92 5 0
      vertex 83 14.9859 0
      vertex 83 28.9859 0
    endloop
  endfacet
  facet normal 0 0 -1
    outer loop
      vertex 87 0 0
      vertex 69 14.9859 0
      vertex 83 14.9859 0
    endloop
  endfacet
  facet normal 0 0 -1
    outer loop
      vertex 63 28.9859 0
      vertex 69 28.9859 0
      vertex 69 14.9859 0
    endloop
  endfacet
  facet normal 0 0 -1
    outer loop
      vertex 69 28.9859 0
      vertex 63 28.9859 0
      vertex 69 34.9859 0
    endloop
  endfacet
  facet normal 0 0 -1
    outer loop
      vertex 63 28.9859 0
      vertex 69 14.9859 0
      vertex 63 14.9859 0
    endloop
  endfacet
  facet normal 0 0 -1
    outer loop
      vertex 87 0 0
      vertex 63 14.9859 0
      vertex 69 14.9859 0
    endloop
  endfacet
  facet normal 0 0 -1
    outer loop
      vertex 87 0 0
      vertex 49 14.9859 0
      vertex 63 14.9859 0
    endloop
  endfacet
  facet normal 0 0 -1
    outer loop
      vertex 43 28.9859 0
      vertex 49 28.9859 0
      vertex 49 14.9859 0
    endloop
  endfacet
  facet normal 0 0 -1
    outer loop
      vertex 49 28.9859 0
      vertex 43 28.9859 0
      vertex 49 34.9859 0
    endloop
  endfacet
  facet normal 0 0 -1
    outer loop
      vertex 43 28.9859 0
      vertex 49 14.9859 0
      vertex 43 14.9859 0
    endloop
  endfacet
  facet normal 0 0 -1
    outer loop
      vertex 87 0 0
      vertex 43 14.9859 0
      vertex 49 14.9859 0
    endloop
  endfacet
  facet normal 0 0 -1
    outer loop
      vertex 5 0 0
      vertex 43 14.9859 0
      vertex 87 0 0
    endloop
  endfacet
  facet normal 0 0 -1
    outer loop
      vertex 23 28.9859 0
      vertex 29 28.9859 0
      vertex 29 14.9859 0
    endloop
  endfacet
  facet normal 0 0 -1
    outer loop
      vertex 29 28.9859 0
      vertex 23 28.9859 0
      vertex 29 34.9859 0
    endloop
  endfacet
  facet normal 0 0 -1
    outer loop
      vertex 23 28.9859 0
      vertex 29 14.9859 0
      vertex 23 14.9859 0
    endloop
  endfacet
  facet normal -0 0 -1
    outer loop
      vertex 43 14.9859 0
      vertex 5 0 0
      vertex 29 14.9859 0
    endloop
  endfacet
  facet normal -0 0 -1
    outer loop
      vertex 29 14.9859 0
      vertex 5 0 0
      vertex 23 14.9859 0
    endloop
  endfacet
  facet normal 0 0 -1
    outer loop
      vertex 0 5 0
      vertex 9 28.9859 0
      vertex 9 14.9859 0
    endloop
  endfacet
  facet normal -0 0 -1
    outer loop
      vertex 9 28.9859 0
      vertex 0 5 0
      vertex 9 34.9859 0
    endloop
  endfacet
  facet normal 0 0 -1
    outer loop
      vertex 0 5 0
      vertex 9 14.9859 0
      vertex 5 0 0
    endloop
  endfacet
  facet normal -0 0 -1
    outer loop
      vertex 23 14.9859 0
      vertex 5 0 0
      vertex 9 14.9859 0
    endloop
  endfacet
  facet normal 0 0 -1
    outer loop
      vertex 90.5355 62.5074 0
      vertex 87 63.9719 0
      vertex 89.7778 63.1292 0
    endloop
  endfacet
  facet normal 0 0 -1
    outer loop
      vertex 89.7778 63.1292 0
      vertex 87 63.9719 0
      vertex 88.9134 63.5912 0
    endloop
  endfacet
  facet normal 0 0 -1
    outer loop
      vertex 88.9134 63.5912 0
      vertex 87 63.9719 0
      vertex 87.9754 63.8758 0
    endloop
  endfacet
  facet normal 0 0 -1
    outer loop
      vertex 69 48.9859 0
      vertex 87 63.9719 0
      vertex 83 48.9859 0
    endloop
  endfacet
  facet normal 0 0 -1
    outer loop
      vertex 63 34.9859 0
      vertex 69 34.9859 0
      vertex 63 28.9859 0
    endloop
  endfacet
  facet normal 0 0 -1
    outer loop
      vertex 69 34.9859 0
      vertex 63 34.9859 0
      vertex 69 48.9859 0
    endloop
  endfacet
  facet normal 0 0 -1
    outer loop
      vertex 63 48.9859 0
      vertex 69 48.9859 0
      vertex 63 34.9859 0
    endloop
  endfacet
  facet normal 0 0 -1
    outer loop
      vertex 63 48.9859 0
      vertex 87 63.9719 0
      vertex 69 48.9859 0
    endloop
  endfacet
  facet normal 0 0 -1
    outer loop
      vertex 49 48.9859 0
      vertex 87 63.9719 0
      vertex 63 48.9859 0
    endloop
  endfacet
  facet normal 0 0 -1
    outer loop
      vertex 43 34.9859 0
      vertex 49 34.9859 0
      vertex 43 28.9859 0
    endloop
  endfacet
  facet normal 0 0 -1
    outer loop
      vertex 49 34.9859 0
      vertex 43 34.9859 0
      vertex 49 48.9859 0
    endloop
  endfacet
  facet normal 0 0 -1
    outer loop
      vertex 43 48.9859 0
      vertex 49 48.9859 0
      vertex 43 34.9859 0
    endloop
  endfacet
  facet normal 0 0 -1
    outer loop
      vertex 43 48.9859 0
      vertex 87 63.9719 0
      vertex 49 48.9859 0
    endloop
  endfacet
  facet normal 0 0 -1
    outer loop
      vertex 5 63.9719 0
      vertex 43 48.9859 0
      vertex 29 48.9859 0
    endloop
  endfacet
  facet normal 0 0 -1
    outer loop
      vertex 23 34.9859 0
      vertex 29 34.9859 0
      vertex 23 28.9859 0
    endloop
  endfacet
  facet normal 0 0 -1
    outer loop
      vertex 29 34.9859 0
      vertex 23 34.9859 0
      vertex 29 48.9859 0
    endloop
  endfacet
  facet normal 0 0 -1
    outer loop
      vertex 23 48.9859 0
      vertex 29 48.9859 0
      vertex 23 34.9859 0
    endloop
  endfacet
  facet normal 0 0 -1
    outer loop
      vertex 5 63.9719 0
      vertex 29 48.9859 0
      vertex 23 48.9859 0
    endloop
  endfacet
  facet normal 0 0 -1
    outer loop
      vertex 5 63.9719 0
      vertex 23 48.9859 0
      vertex 9 48.9859 0
    endloop
  endfacet
  facet normal 0 0 -1
    outer loop
      vertex 43 48.9859 0
      vertex 5 63.9719 0
      vertex 87 63.9719 0
    endloop
  endfacet
  facet normal 0 0 -1
    outer loop
      vertex 0 58.9719 0
      vertex 9 34.9859 0
      vertex 0 5 0
    endloop
  endfacet
  facet normal 0 0 -1
    outer loop
      vertex 0 5 0
      vertex 5 0 0
      vertex 4.02455 0.0960846 0
    endloop
  endfacet
  facet normal 0 0 -1
    outer loop
      vertex 9 34.9859 0
      vertex 0 58.9719 0
      vertex 9 48.9859 0
    endloop
  endfacet
  facet normal 0 0 -1
    outer loop
      vertex 0 5 0
      vertex 4.02455 0.0960846 0
      vertex 3.08659 0.380615 0
    endloop
  endfacet
  facet normal 0 0 -1
    outer loop
      vertex 9 48.9859 0
      vertex 0 58.9719 0
      vertex 5 63.9719 0
    endloop
  endfacet
  facet normal 0 0 -1
    outer loop
      vertex 0 5 0
      vertex 3.08659 0.380615 0
      vertex 2.22215 0.842667 0
    endloop
  endfacet
  facet normal 0 0 -1
    outer loop
      vertex 5 63.9719 0
      vertex 0 58.9719 0
      vertex 4.02455 63.8758 0
    endloop
  endfacet
  facet normal 0 0 -1
    outer loop
      vertex 0 5 0
      vertex 2.22215 0.842667 0
      vertex 1.46448 1.46448 0
    endloop
  endfacet
  facet normal 0 0 -1
    outer loop
      vertex 4.02455 63.8758 0
      vertex 0 58.9719 0
      vertex 3.08659 63.5912 0
    endloop
  endfacet
  facet normal 0 0 -1
    outer loop
      vertex 0 5 0
      vertex 1.46448 1.46448 0
      vertex 0.842667 2.22215 0
    endloop
  endfacet
  facet normal 0 0 -1
    outer loop
      vertex 3.08659 63.5912 0
      vertex 0 58.9719 0
      vertex 2.22215 63.1292 0
    endloop
  endfacet
  facet normal 0 0 -1
    outer loop
      vertex 0 5 0
      vertex 0.842667 2.22215 0
      vertex 0.380615 3.08659 0
    endloop
  endfacet
  facet normal 0 0 -1
    outer loop
      vertex 2.22215 63.1292 0
      vertex 0 58.9719 0
      vertex 1.46448 62.5074 0
    endloop
  endfacet
  facet normal 0 0 -1
    outer loop
      vertex 0 5 0
      vertex 0.380615 3.08659 0
      vertex 0.0960846 4.02455 0
    endloop
  endfacet
  facet normal 0 0 -1
    outer loop
      vertex 1.46448 62.5074 0
      vertex 0 58.9719 0
      vertex 0.842667 61.7497 0
    endloop
  endfacet
  facet normal 0 0 -1
    outer loop
      vertex 0.842667 61.7497 0
      vertex 0 58.9719 0
      vertex 0.380615 60.8853 0
    endloop
  endfacet
  facet normal 0 0 -1
    outer loop
      vertex 0.380615 60.8853 0
      vertex 0 58.9719 0
      vertex 0.0960846 59.9473 0
    endloop
  endfacet
  facet normal -1 0 0
    outer loop
      vertex 23 14.9859 0
      vertex 23 28.9859 3
      vertex 23 28.9859 0
    endloop
  endfacet
  facet normal -1 -0 0
    outer loop
      vertex 23 28.9859 3
      vertex 23 14.9859 0
      vertex 23 14.9859 3
    endloop
  endfacet
  facet normal 1 -0 0
    outer loop
      vertex 9 14.9859 3
      vertex 9 28.9859 0
      vertex 9 28.9859 3
    endloop
  endfacet
  facet normal 1 0 0
    outer loop
      vertex 9 28.9859 0
      vertex 9 14.9859 3
      vertex 9 14.9859 0
    endloop
  endfacet
  facet normal 0 1 -0
    outer loop
      vertex 23 14.9859 0
      vertex 9 14.9859 3
      vertex 23 14.9859 3
    endloop
  endfacet
  facet normal 0 1 0
    outer loop
      vertex 9 14.9859 3
      vertex 23 14.9859 0
      vertex 9 14.9859 0
    endloop
  endfacet
  facet normal 0 -1 0
    outer loop
      vertex 9 28.9859 0
      vertex 23 28.9859 3
      vertex 9 28.9859 3
    endloop
  endfacet
  facet normal 0 -1 -0
    outer loop
      vertex 23 28.9859 3
      vertex 9 28.9859 0
      vertex 23 28.9859 0
    endloop
  endfacet
  facet normal -1 0 0
    outer loop
      vertex 23 34.9859 0
      vertex 23 48.9859 3
      vertex 23 48.9859 0
    endloop
  endfacet
  facet normal -1 -0 0
    outer loop
      vertex 23 48.9859 3
      vertex 23 34.9859 0
      vertex 23 34.9859 3
    endloop
  endfacet
  facet normal 1 -0 0
    outer loop
      vertex 9 34.9859 3
      vertex 9 48.9859 0
      vertex 9 48.9859 3
    endloop
  endfacet
  facet normal 1 0 0
    outer loop
      vertex 9 48.9859 0
      vertex 9 34.9859 3
      vertex 9 34.9859 0
    endloop
  endfacet
  facet normal 0 1 -0
    outer loop
      vertex 23 34.9859 0
      vertex 9 34.9859 3
      vertex 23 34.9859 3
    endloop
  endfacet
  facet normal 0 1 0
    outer loop
      vertex 9 34.9859 3
      vertex 23 34.9859 0
      vertex 9 34.9859 0
    endloop
  endfacet
  facet normal 0 -1 0
    outer loop
      vertex 9 48.9859 0
      vertex 23 48.9859 3
      vertex 9 48.9859 3
    endloop
  endfacet
  facet normal 0 -1 -0
    outer loop
      vertex 23 48.9859 3
      vertex 9 48.9859 0
      vertex 23 48.9859 0
    endloop
  endfacet
  facet normal -1 0 0
    outer loop
      vertex 43 14.9859 0
      vertex 43 28.9859 3
      vertex 43 28.9859 0
    endloop
  endfacet
  facet normal -1 -0 0
    outer loop
      vertex 43 28.9859 3
      vertex 43 14.9859 0
      vertex 43 14.9859 3
    endloop
  endfacet
  facet normal 1 -0 0
    outer loop
      vertex 29 14.9859 3
      vertex 29 28.9859 0
      vertex 29 28.9859 3
    endloop
  endfacet
  facet normal 1 0 0
    outer loop
      vertex 29 28.9859 0
      vertex 29 14.9859 3
      vertex 29 14.9859 0
    endloop
  endfacet
  facet normal 0 1 -0
    outer loop
      vertex 43 14.9859 0
      vertex 29 14.9859 3
      vertex 43 14.9859 3
    endloop
  endfacet
  facet normal 0 1 0
    outer loop
      vertex 29 14.9859 3
      vertex 43 14.9859 0
      vertex 29 14.9859 0
    endloop
  endfacet
  facet normal 0 -1 0
    outer loop
      vertex 29 28.9859 0
      vertex 43 28.9859 3
      vertex 29 28.9859 3
    endloop
  endfacet
  facet normal 0 -1 -0
    outer loop
      vertex 43 28.9859 3
      vertex 29 28.9859 0
      vertex 43 28.9859 0
    endloop
  endfacet
  facet normal -1 0 0
    outer loop
      vertex 43 34.9859 0
      vertex 43 48.9859 3
      vertex 43 48.9859 0
    endloop
  endfacet
  facet normal -1 -0 0
    outer loop
      vertex 43 48.9859 3
      vertex 43 34.9859 0
      vertex 43 34.9859 3
    endloop
  endfacet
  facet normal 1 -0 0
    outer loop
      vertex 29 34.9859 3
      vertex 29 48.9859 0
      vertex 29 48.9859 3
    endloop
  endfacet
  facet normal 1 0 0
    outer loop
      vertex 29 48.9859 0
      vertex 29 34.9859 3
      vertex 29 34.9859 0
    endloop
  endfacet
  facet normal 0 1 -0
    outer loop
      vertex 43 34.9859 0
      vertex 29 34.9859 3
      vertex 43 34.9859 3
    endloop
  endfacet
  facet normal 0 1 0
    outer loop
      vertex 29 34.9859 3
      vertex 43 34.9859 0
      vertex 29 34.9859 0
    endloop
  endfacet
  facet normal 0 -1 0
    outer loop
      vertex 29 48.9859 0
      vertex 43 48.9859 3
      vertex 29 48.9859 3
    endloop
  endfacet
  facet normal 0 -1 -0
    outer loop
      vertex 43 48.9859 3
      vertex 29 48.9859 0
      vertex 43 48.9859 0
    endloop
  endfacet
  facet normal -1 0 0
    outer loop
      vertex 63 14.9859 0
      vertex 63 28.9859 3
      vertex 63 28.9859 0
    endloop
  endfacet
  facet normal -1 -0 0
    outer loop
      vertex 63 28.9859 3
      vertex 63 14.9859 0
      vertex 63 14.9859 3
    endloop
  endfacet
  facet normal 1 -0 0
    outer loop
      vertex 49 14.9859 3
      vertex 49 28.9859 0
      vertex 49 28.9859 3
    endloop
  endfacet
  facet normal 1 0 0
    outer loop
      vertex 49 28.9859 0
      vertex 49 14.9859 3
      vertex 49 14.9859 0
    endloop
  endfacet
  facet normal 0 1 -0
    outer loop
      vertex 63 14.9859 0
      vertex 49 14.9859 3
      vertex 63 14.9859 3
    endloop
  endfacet
  facet normal 0 1 0
    outer loop
      vertex 49 14.9859 3
      vertex 63 14.9859 0
      vertex 49 14.9859 0
    endloop
  endfacet
  facet normal 0 -1 0
    outer loop
      vertex 49 28.9859 0
      vertex 63 28.9859 3
      vertex 49 28.9859 3
    endloop
  endfacet
  facet normal 0 -1 -0
    outer loop
      vertex 63 28.9859 3
      vertex 49 28.9859 0
      vertex 63 28.9859 0
    endloop
  endfacet
  facet normal -1 0 0
    outer loop
      vertex 63 34.9859 0
      vertex 63 48.9859 3
      vertex 63 48.9859 0
    endloop
  endfacet
  facet normal -1 -0 0
    outer loop
      vertex 63 48.9859 3
      vertex 63 34.9859 0
      vertex 63 34.9859 3
    endloop
  endfacet
  facet normal 1 -0 0
    outer loop
      vertex 49 34.9859 3
      vertex 49 48.9859 0
      vertex 49 48.9859 3
    endloop
  endfacet
  facet normal 1 0 0
    outer loop
      vertex 49 48.9859 0
      vertex 49 34.9859 3
      vertex 49 34.9859 0
    endloop
  endfacet
  facet normal 0 1 -0
    outer loop
      vertex 63 34.9859 0
      vertex 49 34.9859 3
      vertex 63 34.9859 3
    endloop
  endfacet
  facet normal 0 1 0
    outer loop
      vertex 49 34.9859 3
      vertex 63 34.9859 0
      vertex 49 34.9859 0
    endloop
  endfacet
  facet normal 0 -1 0
    outer loop
      vertex 49 48.9859 0
      vertex 63 48.9859 3
      vertex 49 48.9859 3
    endloop
  endfacet
  facet normal 0 -1 -0
    outer loop
      vertex 63 48.9859 3
      vertex 49 48.9859 0
      vertex 63 48.9859 0
    endloop
  endfacet
  facet normal -1 0 0
    outer loop
      vertex 83 14.9859 0
      vertex 83 28.9859 3
      vertex 83 28.9859 0
    endloop
  endfacet
  facet normal -1 -0 0
    outer loop
      vertex 83 28.9859 3
      vertex 83 14.9859 0
      vertex 83 14.9859 3
    endloop
  endfacet
  facet normal 1 -0 0
    outer loop
      vertex 69 14.9859 3
      vertex 69 28.9859 0
      vertex 69 28.9859 3
    endloop
  endfacet
  facet normal 1 0 0
    outer loop
      vertex 69 28.9859 0
      vertex 69 14.9859 3
      vertex 69 14.9859 0
    endloop
  endfacet
  facet normal 0 1 -0
    outer loop
      vertex 83 14.9859 0
      vertex 69 14.9859 3
      vertex 83 14.9859 3
    endloop
  endfacet
  facet normal 0 1 0
    outer loop
      vertex 69 14.9859 3
      vertex 83 14.9859 0
      vertex 69 14.9859 0
    endloop
  endfacet
  facet normal 0 -1 0
    outer loop
      vertex 69 28.9859 0
      vertex 83 28.9859 3
      vertex 69 28.9859 3
    endloop
  endfacet
  facet normal 0 -1 -0
    outer loop
      vertex 83 28.9859 3
      vertex 69 28.9859 0
      vertex 83 28.9859 0
    endloop
  endfacet
  facet normal -1 0 0
    outer loop
      vertex 83 34.9859 0
      vertex 83 48.9859 3
      vertex 83 48.9859 0
    endloop
  endfacet
  facet normal -1 -0 0
    outer loop
      vertex 83 48.9859 3
      vertex 83 34.9859 0
      vertex 83 34.9859 3
    endloop
  endfacet
  facet normal 1 -0 0
    outer loop
      vertex 69 34.9859 3
      vertex 69 48.9859 0
      vertex 69 48.9859 3
    endloop
  endfacet
  facet normal 1 0 0
    outer loop
      vertex 69 48.9859 0
      vertex 69 34.9859 3
      vertex 69 34.9859 0
    endloop
  endfacet
  facet normal 0 1 -0
    outer loop
      vertex 83 34.9859 0
      vertex 69 34.9859 3
      vertex 83 34.9859 3
    endloop
  endfacet
  facet normal 0 1 0
    outer loop
      vertex 69 34.9859 3
      vertex 83 34.9859 0
      vertex 69 34.9859 0
    endloop
  endfacet
  facet normal 0 -1 0
    outer loop
      vertex 69 48.9859 0
      vertex 83 48.9859 3
      vertex 69 48.9859 3
    endloop
  endfacet
  facet normal 0 -1 -0
    outer loop
      vertex 83 48.9859 3
      vertex 69 48.9859 0
      vertex 83 48.9859 0
    endloop
  endfacet
  facet normal -0 0 1
    outer loop
      vertex 9 34.9859 3
      vertex 23 28.9859 3
      vertex 23 34.9859 3
    endloop
  endfacet
  facet normal 0 0 1
    outer loop
      vertex 23 28.9859 3
      vertex 9 34.9859 3
      vertex 9 28.9859 3
    endloop
  endfacet
  facet normal -0 0 1
    outer loop
      vertex 29 34.9859 3
      vertex 43 28.9859 3
      vertex 43 34.9859 3
    endloop
  endfacet
  facet normal 0 0 1
    outer loop
      vertex 43 28.9859 3
      vertex 29 34.9859 3
      vertex 29 28.9859 3
    endloop
  endfacet
  facet normal -0 0 1
    outer loop
      vertex 49 34.9859 3
      vertex 63 28.9859 3
      vertex 63 34.9859 3
    endloop
  endfacet
  facet normal 0 0 1
    outer loop
      vertex 63 28.9859 3
      vertex 49 34.9859 3
      vertex 49 28.9859 3
    endloop
  endfacet
  facet normal -0 0 1
    outer loop
      vertex 69 34.9859 3
      vertex 83 28.9859 3
      vertex 83 34.9859 3
    endloop
  endfacet
  facet normal 0 0 1
    outer loop
      vertex 83 28.9859 3
      vertex 69 34.9859 3
      vertex 69 28.9859 3
    endloop
  endfacet
  facet normal 0 0 1
    outer loop
      vertex 83 34.9859 3
      vertex 86 51.9859 3
      vertex 83 48.9859 3
    endloop
  endfacet
  facet normal 0 0 1
    outer loop
      vertex 86 51.9859 3
      vertex 69 48.9859 3
      vertex 83 48.9859 3
    endloop
  endfacet
  facet normal 0 0 1
    outer loop
      vertex 63 34.9859 3
      vertex 69 34.9859 3
      vertex 69 48.9859 3
    endloop
  endfacet
  facet normal 0 0 1
    outer loop
      vertex 69 34.9859 3
      vertex 63 34.9859 3
      vertex 69 28.9859 3
    endloop
  endfacet
  facet normal 0 0 1
    outer loop
      vertex 63 34.9859 3
      vertex 69 48.9859 3
      vertex 63 48.9859 3
    endloop
  endfacet
  facet normal 0 0 1
    outer loop
      vertex 86 51.9859 3
      vertex 63 48.9859 3
      vertex 69 48.9859 3
    endloop
  endfacet
  facet normal 0 0 1
    outer loop
      vertex 86 51.9859 3
      vertex 49 48.9859 3
      vertex 63 48.9859 3
    endloop
  endfacet
  facet normal 0 0 1
    outer loop
      vertex 43 34.9859 3
      vertex 49 34.9859 3
      vertex 49 48.9859 3
    endloop
  endfacet
  facet normal 0 0 1
    outer loop
      vertex 49 34.9859 3
      vertex 43 34.9859 3
      vertex 49 28.9859 3
    endloop
  endfacet
  facet normal 0 0 1
    outer loop
      vertex 43 34.9859 3
      vertex 49 48.9859 3
      vertex 43 48.9859 3
    endloop
  endfacet
  facet normal 0 0 1
    outer loop
      vertex 86 51.9859 3
      vertex 43 48.9859 3
      vertex 49 48.9859 3
    endloop
  endfacet
  facet normal -0 0 1
    outer loop
      vertex 6 51.9859 3
      vertex 43 48.9859 3
      vertex 86 51.9859 3
    endloop
  endfacet
  facet normal 0 0 1
    outer loop
      vertex 23 34.9859 3
      vertex 29 34.9859 3
      vertex 29 48.9859 3
    endloop
  endfacet
  facet normal 0 0 1
    outer loop
      vertex 29 34.9859 3
      vertex 23 34.9859 3
      vertex 29 28.9859 3
    endloop
  endfacet
  facet normal 0 0 1
    outer loop
      vertex 23 34.9859 3
      vertex 29 48.9859 3
      vertex 23 48.9859 3
    endloop
  endfacet
  facet normal 0 0 1
    outer loop
      vertex 43 48.9859 3
      vertex 6 51.9859 3
      vertex 29 48.9859 3
    endloop
  endfacet
  facet normal 0 0 1
    outer loop
      vertex 29 48.9859 3
      vertex 6 51.9859 3
      vertex 23 48.9859 3
    endloop
  endfacet
  facet normal 0 0 1
    outer loop
      vertex 6 51.9859 3
      vertex 9 34.9859 3
      vertex 9 48.9859 3
    endloop
  endfacet
  facet normal 0 0 1
    outer loop
      vertex 9 34.9859 3
      vertex 6 51.9859 3
      vertex 9 28.9859 3
    endloop
  endfacet
  facet normal 0 0 1
    outer loop
      vertex 6 11.9859 3
      vertex 9 28.9859 3
      vertex 6 51.9859 3
    endloop
  endfacet
  facet normal 0 0 1
    outer loop
      vertex 23 48.9859 3
      vertex 6 51.9859 3
      vertex 9 48.9859 3
    endloop
  endfacet
  facet normal 0 0 1
    outer loop
      vertex 86 51.9859 3
      vertex 83 34.9859 3
      vertex 86 11.9859 3
    endloop
  endfacet
  facet normal -0 0 1
    outer loop
      vertex 83 28.9859 3
      vertex 86 11.9859 3
      vertex 83 34.9859 3
    endloop
  endfacet
  facet normal -0 0 1
    outer loop
      vertex 83 14.9859 3
      vertex 86 11.9859 3
      vertex 83 28.9859 3
    endloop
  endfacet
  facet normal -0 0 1
    outer loop
      vertex 69 14.9859 3
      vertex 86 11.9859 3
      vertex 83 14.9859 3
    endloop
  endfacet
  facet normal 0 0 1
    outer loop
      vertex 63 28.9859 3
      vertex 69 28.9859 3
      vertex 63 34.9859 3
    endloop
  endfacet
  facet normal 0 0 1
    outer loop
      vertex 69 28.9859 3
      vertex 63 28.9859 3
      vertex 69 14.9859 3
    endloop
  endfacet
  facet normal 0 0 1
    outer loop
      vertex 63 14.9859 3
      vertex 69 14.9859 3
      vertex 63 28.9859 3
    endloop
  endfacet
  facet normal -0 0 1
    outer loop
      vertex 63 14.9859 3
      vertex 86 11.9859 3
      vertex 69 14.9859 3
    endloop
  endfacet
  facet normal -0 0 1
    outer loop
      vertex 49 14.9859 3
      vertex 86 11.9859 3
      vertex 63 14.9859 3
    endloop
  endfacet
  facet normal 0 0 1
    outer loop
      vertex 43 28.9859 3
      vertex 49 28.9859 3
      vertex 43 34.9859 3
    endloop
  endfacet
  facet normal 0 0 1
    outer loop
      vertex 49 28.9859 3
      vertex 43 28.9859 3
      vertex 49 14.9859 3
    endloop
  endfacet
  facet normal 0 0 1
    outer loop
      vertex 43 14.9859 3
      vertex 49 14.9859 3
      vertex 43 28.9859 3
    endloop
  endfacet
  facet normal -0 0 1
    outer loop
      vertex 43 14.9859 3
      vertex 86 11.9859 3
      vertex 49 14.9859 3
    endloop
  endfacet
  facet normal 0 0 1
    outer loop
      vertex 6 11.9859 3
      vertex 43 14.9859 3
      vertex 29 14.9859 3
    endloop
  endfacet
  facet normal 0 0 1
    outer loop
      vertex 23 28.9859 3
      vertex 29 28.9859 3
      vertex 23 34.9859 3
    endloop
  endfacet
  facet normal 0 0 1
    outer loop
      vertex 29 28.9859 3
      vertex 23 28.9859 3
      vertex 29 14.9859 3
    endloop
  endfacet
  facet normal 0 0 1
    outer loop
      vertex 23 14.9859 3
      vertex 29 14.9859 3
      vertex 23 28.9859 3
    endloop
  endfacet
  facet normal 0 0 1
    outer loop
      vertex 6 11.9859 3
      vertex 29 14.9859 3
      vertex 23 14.9859 3
    endloop
  endfacet
  facet normal 0 0 1
    outer loop
      vertex 6 11.9859 3
      vertex 23 14.9859 3
      vertex 9 14.9859 3
    endloop
  endfacet
  facet normal 0 0 1
    outer loop
      vertex 43 14.9859 3
      vertex 6 11.9859 3
      vertex 86 11.9859 3
    endloop
  endfacet
  facet normal 0 0 1
    outer loop
      vertex 9 28.9859 3
      vertex 6 11.9859 3
      vertex 9 14.9859 3
    endloop
  endfacet
  facet normal -1 0 0
    outer loop
      vertex 86 11.9859 3
      vertex 86 51.9859 10.1
      vertex 86 51.9859 3
    endloop
  endfacet
  facet normal -1 -0 0
    outer loop
      vertex 86 51.9859 10.1
      vertex 86 11.9859 3
      vertex 86 11.9859 10.1
    endloop
  endfacet
  facet normal 1 -0 0
    outer loop
      vertex 6 11.9859 10.1
      vertex 6 51.9859 3
      vertex 6 51.9859 10.1
    endloop
  endfacet
  facet normal 1 0 0
    outer loop
      vertex 6 51.9859 3
      vertex 6 11.9859 10.1
      vertex 6 11.9859 3
    endloop
  endfacet
  facet normal 0 1 -0
    outer loop
      vertex 86 11.9859 3
      vertex 6 11.9859 10.1
      vertex 86 11.9859 10.1
    endloop
  endfacet
  facet normal 0 1 0
    outer loop
      vertex 6 11.9859 10.1
      vertex 86 11.9859 3
      vertex 6 11.9859 3
    endloop
  endfacet
  facet normal 0 -1 0
    outer loop
      vertex 6 51.9859 3
      vertex 86 51.9859 10.1
      vertex 6 51.9859 10.1
    endloop
  endfacet
  facet normal 0 -1 -0
    outer loop
      vertex 86 51.9859 10.1
      vertex 6 51.9859 3
      vertex 86 51.9859 3
    endloop
  endfacet
  facet normal 0.773025 0.634376 0
    outer loop
      vertex 91.1573 61.7497 0.5
      vertex 90.5355 62.5074 0
      vertex 90.5355 62.5074 0.5
    endloop
  endfacet
  facet normal 0.773025 0.634376 0
    outer loop
      vertex 90.5355 62.5074 0
      vertex 91.1573 61.7497 0.5
      vertex 91.1573 61.7497 0
    endloop
  endfacet
  facet normal 0.881892 0.471451 0
    outer loop
      vertex 91.6194 60.8853 0.5
      vertex 91.1573 61.7497 0
      vertex 91.1573 61.7497 0.5
    endloop
  endfacet
  facet normal 0.881892 0.471451 0
    outer loop
      vertex 91.1573 61.7497 0
      vertex 91.6194 60.8853 0.5
      vertex 91.6194 60.8853 0
    endloop
  endfacet
  facet normal 0.720822 0.385345 0.576129
    outer loop
      vertex 86.1573 56.7497 10.1
      vertex 91.6194 60.8853 0.5
      vertex 91.1573 61.7497 0.5
    endloop
  endfacet
  facet normal 0.720822 0.385345 0.576129
    outer loop
      vertex 91.6194 60.8853 0.5
      vertex 86.1573 56.7497 10.1
      vertex 86.6194 55.8853 10.1
    endloop
  endfacet
  facet normal 0 0.886914 0.461934
    outer loop
      vertex 87 63.9719 0.5
      vertex 10 58.9719 10.1
      vertex 82 58.9719 10.1
    endloop
  endfacet
  facet normal 0 0.886914 0.461934
    outer loop
      vertex 10 58.9719 10.1
      vertex 87 63.9719 0.5
      vertex 5 63.9719 0.5
    endloop
  endfacet
  facet normal 0.956951 0.290248 0
    outer loop
      vertex 91.9039 59.9473 0.5
      vertex 91.6194 60.8853 0
      vertex 91.6194 60.8853 0.5
    endloop
  endfacet
  facet normal 0.956951 0.290248 0
    outer loop
      vertex 91.6194 60.8853 0
      vertex 91.9039 59.9473 0.5
      vertex 91.9039 59.9473 0
    endloop
  endfacet
  facet normal -0.38527 0.720872 0.576116
    outer loop
      vertex 3.08659 63.5912 0.5
      vertex 7.22215 58.1292 10.1
      vertex 8.08659 58.5912 10.1
    endloop
  endfacet
  facet normal -0.38527 0.720872 0.576116
    outer loop
      vertex 7.22215 58.1292 10.1
      vertex 3.08659 63.5912 0.5
      vertex 2.22215 63.1292 0.5
    endloop
  endfacet
  facet normal 0.51164 0.623464 0.5912
    outer loop
      vertex 89.7778 63.1292 0.5
      vertex 85.5355 57.5074 10.1
      vertex 90.5355 62.5074 0.5
    endloop
  endfacet
  facet normal 0.51164 0.623464 0.5912
    outer loop
      vertex 85.5355 57.5074 10.1
      vertex 89.7778 63.1292 0.5
      vertex 84.7778 58.1292 10.1
    endloop
  endfacet
  facet normal 0.385283 0.720864 0.576118
    outer loop
      vertex 88.9134 63.5912 0.5
      vertex 84.7778 58.1292 10.1
      vertex 89.7778 63.1292 0.5
    endloop
  endfacet
  facet normal 0.385283 0.720864 0.576118
    outer loop
      vertex 84.7778 58.1292 10.1
      vertex 88.9134 63.5912 0.5
      vertex 83.9134 58.5912 10.1
    endloop
  endfacet
  facet normal -0.634391 0.773012 0
    outer loop
      vertex 2.22215 63.1292 0
      vertex 1.46448 62.5074 0.5
      vertex 2.22215 63.1292 0.5
    endloop
  endfacet
  facet normal -0.634391 0.773012 0
    outer loop
      vertex 1.46448 62.5074 0.5
      vertex 2.22215 63.1292 0
      vertex 1.46448 62.5074 0
    endloop
  endfacet
  facet normal -0.471355 0.881944 0
    outer loop
      vertex 3.08659 63.5912 0
      vertex 2.22215 63.1292 0.5
      vertex 3.08659 63.5912 0.5
    endloop
  endfacet
  facet normal -0.471355 0.881944 0
    outer loop
      vertex 2.22215 63.1292 0.5
      vertex 3.08659 63.5912 0
      vertex 2.22215 63.1292 0
    endloop
  endfacet
  facet normal -0.720842 0.385315 0.576124
    outer loop
      vertex 0.380615 60.8853 0.5
      vertex 5.84267 56.7497 10.1
      vertex 0.842667 61.7497 0.5
    endloop
  endfacet
  facet normal -0.720843 0.385314 0.576124
    outer loop
      vertex 5.84267 56.7497 10.1
      vertex 0.380615 60.8853 0.5
      vertex 5.38062 55.8853 10.1
    endloop
  endfacet
  facet normal 0.385314 -0.720843 0.576124
    outer loop
      vertex 88.9134 0.380615 0.5
      vertex 84.7778 5.84267 10.1
      vertex 83.9134 5.38062 10.1
    endloop
  endfacet
  facet normal 0.385315 -0.720842 0.576124
    outer loop
      vertex 84.7778 5.84267 10.1
      vertex 88.9134 0.380615 0.5
      vertex 89.7778 0.842667 0.5
    endloop
  endfacet
  facet normal 0 1 -0
    outer loop
      vertex 87 63.9719 0
      vertex 5 63.9719 0.5
      vertex 87 63.9719 0.5
    endloop
  endfacet
  facet normal 0 1 0
    outer loop
      vertex 5 63.9719 0.5
      vertex 87 63.9719 0
      vertex 5 63.9719 0
    endloop
  endfacet
  facet normal 0.098049 0.995182 -0
    outer loop
      vertex 87.9754 63.8758 0
      vertex 87 63.9719 0.5
      vertex 87.9754 63.8758 0.5
    endloop
  endfacet
  facet normal 0.098049 0.995182 0
    outer loop
      vertex 87 63.9719 0.5
      vertex 87.9754 63.8758 0
      vertex 87 63.9719 0
    endloop
  endfacet
  facet normal -0.886914 0 0.461934
    outer loop
      vertex 0 58.9719 0.5
      vertex 5 10 10.1
      vertex 5 53.9719 10.1
    endloop
  endfacet
  facet normal -0.886914 0 0.461934
    outer loop
      vertex 5 10 10.1
      vertex 0 58.9719 0.5
      vertex 0 5 0.5
    endloop
  endfacet
  facet normal -0.881922 -0.471396 0
    outer loop
      vertex 0.842667 2.22215 0
      vertex 0.380615 3.08659 0.5
      vertex 0.380615 3.08659 0
    endloop
  endfacet
  facet normal -0.881922 -0.471396 0
    outer loop
      vertex 0.380615 3.08659 0.5
      vertex 0.842667 2.22215 0
      vertex 0.842667 2.22215 0.5
    endloop
  endfacet
  facet normal 0 -0.886914 0.461934
    outer loop
      vertex 5 0 0.5
      vertex 82 5 10.1
      vertex 10 5 10.1
    endloop
  endfacet
  facet normal 0 -0.886914 0.461934
    outer loop
      vertex 82 5 10.1
      vertex 5 0 0.5
      vertex 87 0 0.5
    endloop
  endfacet
  facet normal -0.385302 -0.720851 0.576122
    outer loop
      vertex 3.08659 0.380615 0.5
      vertex 7.22215 5.84267 10.1
      vertex 2.22215 0.842667 0.5
    endloop
  endfacet
  facet normal -0.385301 -0.720852 0.576122
    outer loop
      vertex 7.22215 5.84267 10.1
      vertex 3.08659 0.380615 0.5
      vertex 8.08659 5.38062 10.1
    endloop
  endfacet
  facet normal 0 -1 0
    outer loop
      vertex 5 0 0
      vertex 87 0 0.5
      vertex 5 0 0.5
    endloop
  endfacet
  facet normal 0 -1 -0
    outer loop
      vertex 87 0 0.5
      vertex 5 0 0
      vertex 87 0 0
    endloop
  endfacet
  facet normal 0.0851878 -0.864823 0.494797
    outer loop
      vertex 87 0 0.5
      vertex 82.9754 5.09608 10.1
      vertex 82 5 10.1
    endloop
  endfacet
  facet normal 0.0851918 -0.864822 0.494798
    outer loop
      vertex 82.9754 5.09608 10.1
      vertex 87 0 0.5
      vertex 87.9754 0.0960846 0.5
    endloop
  endfacet
  facet normal -0.720852 -0.385301 0.576122
    outer loop
      vertex 0.380615 3.08659 0.5
      vertex 5.84267 7.22215 10.1
      vertex 5.38062 8.08659 10.1
    endloop
  endfacet
  facet normal -0.720851 -0.385302 0.576122
    outer loop
      vertex 5.84267 7.22215 10.1
      vertex 0.380615 3.08659 0.5
      vertex 0.842667 2.22215 0.5
    endloop
  endfacet
  facet normal 0 0 1
    outer loop
      vertex 86 51.9859 10.1
      vertex 87 53.9719 10.1
      vertex 86.9039 54.9473 10.1
    endloop
  endfacet
  facet normal 0 0 1
    outer loop
      vertex 87 53.9719 10.1
      vertex 86 51.9859 10.1
      vertex 87 10 10.1
    endloop
  endfacet
  facet normal 0 0 1
    outer loop
      vertex 86 51.9859 10.1
      vertex 86.9039 54.9473 10.1
      vertex 86.6194 55.8853 10.1
    endloop
  endfacet
  facet normal -0 0 1
    outer loop
      vertex 86 11.9859 10.1
      vertex 87 10 10.1
      vertex 86 51.9859 10.1
    endloop
  endfacet
  facet normal 0 0 1
    outer loop
      vertex 86 51.9859 10.1
      vertex 86.6194 55.8853 10.1
      vertex 86.1573 56.7497 10.1
    endloop
  endfacet
  facet normal 0 0 1
    outer loop
      vertex 87 10 10.1
      vertex 86 11.9859 10.1
      vertex 86.9039 9.02455 10.1
    endloop
  endfacet
  facet normal 0 0 1
    outer loop
      vertex 86.9039 9.02455 10.1
      vertex 86 11.9859 10.1
      vertex 86.6194 8.08659 10.1
    endloop
  endfacet
  facet normal 0 0 1
    outer loop
      vertex 85.5355 57.5074 10.1
      vertex 86 51.9859 10.1
      vertex 86.1573 56.7497 10.1
    endloop
  endfacet
  facet normal 0 0 1
    outer loop
      vertex 84.7778 58.1292 10.1
      vertex 86 51.9859 10.1
      vertex 85.5355 57.5074 10.1
    endloop
  endfacet
  facet normal 0 0 1
    outer loop
      vertex 83.9134 58.5912 10.1
      vertex 86 51.9859 10.1
      vertex 84.7778 58.1292 10.1
    endloop
  endfacet
  facet normal 0 0 1
    outer loop
      vertex 82.9754 58.8758 10.1
      vertex 86 51.9859 10.1
      vertex 83.9134 58.5912 10.1
    endloop
  endfacet
  facet normal 0 0 1
    outer loop
      vertex 82 58.9719 10.1
      vertex 86 51.9859 10.1
      vertex 82.9754 58.8758 10.1
    endloop
  endfacet
  facet normal -0 0 1
    outer loop
      vertex 10 58.9719 10.1
      vertex 86 51.9859 10.1
      vertex 82 58.9719 10.1
    endloop
  endfacet
  facet normal 0 0 1
    outer loop
      vertex 6 51.9859 10.1
      vertex 10 58.9719 10.1
      vertex 9.02455 58.8758 10.1
    endloop
  endfacet
  facet normal 0 0 1
    outer loop
      vertex 6 51.9859 10.1
      vertex 9.02455 58.8758 10.1
      vertex 8.08659 58.5912 10.1
    endloop
  endfacet
  facet normal 0 0 1
    outer loop
      vertex 6 51.9859 10.1
      vertex 8.08659 58.5912 10.1
      vertex 7.22215 58.1292 10.1
    endloop
  endfacet
  facet normal 0 0 1
    outer loop
      vertex 6 51.9859 10.1
      vertex 7.22215 58.1292 10.1
      vertex 6.46448 57.5074 10.1
    endloop
  endfacet
  facet normal 0 0 1
    outer loop
      vertex 10 58.9719 10.1
      vertex 6 51.9859 10.1
      vertex 86 51.9859 10.1
    endloop
  endfacet
  facet normal -0 0 1
    outer loop
      vertex 5.38062 55.8853 10.1
      vertex 6 51.9859 10.1
      vertex 5.84267 56.7497 10.1
    endloop
  endfacet
  facet normal -0 0 1
    outer loop
      vertex 5.84267 56.7497 10.1
      vertex 6 51.9859 10.1
      vertex 6.46448 57.5074 10.1
    endloop
  endfacet
  facet normal 0 0 1
    outer loop
      vertex 86.6194 8.08659 10.1
      vertex 86 11.9859 10.1
      vertex 86.1573 7.22215 10.1
    endloop
  endfacet
  facet normal 0 0 1
    outer loop
      vertex 86 11.9859 10.1
      vertex 85.5355 6.46448 10.1
      vertex 86.1573 7.22215 10.1
    endloop
  endfacet
  facet normal 0 0 1
    outer loop
      vertex 86 11.9859 10.1
      vertex 84.7778 5.84267 10.1
      vertex 85.5355 6.46448 10.1
    endloop
  endfacet
  facet normal 0 0 1
    outer loop
      vertex 86 11.9859 10.1
      vertex 83.9134 5.38062 10.1
      vertex 84.7778 5.84267 10.1
    endloop
  endfacet
  facet normal 0 0 1
    outer loop
      vertex 86 11.9859 10.1
      vertex 82.9754 5.09608 10.1
      vertex 83.9134 5.38062 10.1
    endloop
  endfacet
  facet normal 0 0 1
    outer loop
      vertex 86 11.9859 10.1
      vertex 82 5 10.1
      vertex 82.9754 5.09608 10.1
    endloop
  endfacet
  facet normal 0 0 1
    outer loop
      vertex 86 11.9859 10.1
      vertex 10 5 10.1
      vertex 82 5 10.1
    endloop
  endfacet
  facet normal -0 0 1
    outer loop
      vertex 6 11.9859 10.1
      vertex 10 5 10.1
      vertex 86 11.9859 10.1
    endloop
  endfacet
  facet normal 0 0 1
    outer loop
      vertex 10 5 10.1
      vertex 6 11.9859 10.1
      vertex 9.02455 5.09608 10.1
    endloop
  endfacet
  facet normal 0 0 1
    outer loop
      vertex 9.02455 5.09608 10.1
      vertex 6 11.9859 10.1
      vertex 8.08659 5.38062 10.1
    endloop
  endfacet
  facet normal 0 0 1
    outer loop
      vertex 8.08659 5.38062 10.1
      vertex 6 11.9859 10.1
      vertex 7.22215 5.84267 10.1
    endloop
  endfacet
  facet normal 0 0 1
    outer loop
      vertex 7.22215 5.84267 10.1
      vertex 6 11.9859 10.1
      vertex 6.46448 6.46448 10.1
    endloop
  endfacet
  facet normal 0 0 1
    outer loop
      vertex 6 11.9859 10.1
      vertex 5.84267 7.22215 10.1
      vertex 6.46448 6.46448 10.1
    endloop
  endfacet
  facet normal 0 0 1
    outer loop
      vertex 6 51.9859 10.1
      vertex 5 53.9719 10.1
      vertex 6 11.9859 10.1
    endloop
  endfacet
  facet normal -0 0 1
    outer loop
      vertex 5.09608 54.9473 10.1
      vertex 6 51.9859 10.1
      vertex 5.38062 55.8853 10.1
    endloop
  endfacet
  facet normal 0 0 1
    outer loop
      vertex 5 10 10.1
      vertex 6 11.9859 10.1
      vertex 5 53.9719 10.1
    endloop
  endfacet
  facet normal 0 0 1
    outer loop
      vertex 6 51.9859 10.1
      vertex 5.09608 54.9473 10.1
      vertex 5 53.9719 10.1
    endloop
  endfacet
  facet normal 0 -0 1
    outer loop
      vertex 5.09608 9.02455 10.1
      vertex 6 11.9859 10.1
      vertex 5 10 10.1
    endloop
  endfacet
  facet normal 0 0 1
    outer loop
      vertex 6 11.9859 10.1
      vertex 5.38062 8.08659 10.1
      vertex 5.84267 7.22215 10.1
    endloop
  endfacet
  facet normal 0 0 1
    outer loop
      vertex 6 11.9859 10.1
      vertex 5.09608 9.02455 10.1
      vertex 5.38062 8.08659 10.1
    endloop
  endfacet
  facet normal -0.098044 0.995182 0
    outer loop
      vertex 5 63.9719 0
      vertex 4.02455 63.8758 0.5
      vertex 5 63.9719 0.5
    endloop
  endfacet
  facet normal -0.098044 0.995182 0
    outer loop
      vertex 4.02455 63.8758 0.5
      vertex 5 63.9719 0
      vertex 4.02455 63.8758 0
    endloop
  endfacet
  facet normal 0.290341 0.956923 -0
    outer loop
      vertex 88.9134 63.5912 0
      vertex 87.9754 63.8758 0.5
      vertex 88.9134 63.5912 0.5
    endloop
  endfacet
  facet normal 0.290341 0.956923 0
    outer loop
      vertex 87.9754 63.8758 0.5
      vertex 88.9134 63.5912 0
      vertex 87.9754 63.8758 0
    endloop
  endfacet
  facet normal 0.471372 0.881935 -0
    outer loop
      vertex 89.7778 63.1292 0
      vertex 88.9134 63.5912 0.5
      vertex 89.7778 63.1292 0.5
    endloop
  endfacet
  facet normal 0.471372 0.881935 0
    outer loop
      vertex 88.9134 63.5912 0.5
      vertex 89.7778 63.1292 0
      vertex 88.9134 63.5912 0
    endloop
  endfacet
  facet normal 0.634376 0.773025 -0
    outer loop
      vertex 90.5355 62.5074 0
      vertex 89.7778 63.1292 0.5
      vertex 90.5355 62.5074 0.5
    endloop
  endfacet
  facet normal 0.634376 0.773025 0
    outer loop
      vertex 89.7778 63.1292 0.5
      vertex 90.5355 62.5074 0
      vertex 89.7778 63.1292 0
    endloop
  endfacet
  facet normal 0.623464 0.51164 0.5912
    outer loop
      vertex 85.5355 57.5074 10.1
      vertex 91.1573 61.7497 0.5
      vertex 90.5355 62.5074 0.5
    endloop
  endfacet
  facet normal 0.623464 0.51164 0.5912
    outer loop
      vertex 91.1573 61.7497 0.5
      vertex 85.5355 57.5074 10.1
      vertex 86.1573 56.7497 10.1
    endloop
  endfacet
  facet normal -0.802484 -0.243442 0.544753
    outer loop
      vertex 0.0960846 4.02455 0.5
      vertex 5.38062 8.08659 10.1
      vertex 5.09608 9.02455 10.1
    endloop
  endfacet
  facet normal -0.802487 -0.243435 0.544751
    outer loop
      vertex 5.38062 8.08659 10.1
      vertex 0.0960846 4.02455 0.5
      vertex 0.380615 3.08659 0.5
    endloop
  endfacet
  facet normal -1 0 0
    outer loop
      vertex 0 5 0
      vertex 0 58.9719 0.5
      vertex 0 58.9719 0
    endloop
  endfacet
  facet normal -1 -0 0
    outer loop
      vertex 0 58.9719 0.5
      vertex 0 5 0
      vertex 0 5 0.5
    endloop
  endfacet
  facet normal 0.243478 0.802466 0.544763
    outer loop
      vertex 87.9754 63.8758 0.5
      vertex 83.9134 58.5912 10.1
      vertex 88.9134 63.5912 0.5
    endloop
  endfacet
  facet normal 0.243478 0.802466 0.544763
    outer loop
      vertex 83.9134 58.5912 10.1
      vertex 87.9754 63.8758 0.5
      vertex 82.9754 58.8758 10.1
    endloop
  endfacet
  facet normal 0.085205 0.864818 0.494803
    outer loop
      vertex 87 63.9719 0.5
      vertex 82.9754 58.8758 10.1
      vertex 87.9754 63.8758 0.5
    endloop
  endfacet
  facet normal 0.085205 0.864818 0.494803
    outer loop
      vertex 82.9754 58.8758 10.1
      vertex 87 63.9719 0.5
      vertex 82 58.9719 10.1
    endloop
  endfacet
  facet normal -0.0852008 0.864819 0.494802
    outer loop
      vertex 5 63.9719 0.5
      vertex 9.02455 58.8758 10.1
      vertex 10 58.9719 10.1
    endloop
  endfacet
  facet normal -0.0852008 0.864819 0.494802
    outer loop
      vertex 9.02455 58.8758 10.1
      vertex 5 63.9719 0.5
      vertex 4.02455 63.8758 0.5
    endloop
  endfacet
  facet normal 0.995182 0.098049 0
    outer loop
      vertex 92 58.9719 0.5
      vertex 91.9039 59.9473 0
      vertex 91.9039 59.9473 0.5
    endloop
  endfacet
  facet normal 0.995182 0.098049 0
    outer loop
      vertex 91.9039 59.9473 0
      vertex 92 58.9719 0.5
      vertex 92 58.9719 0
    endloop
  endfacet
  facet normal 0.886914 -0 0.461934
    outer loop
      vertex 87 10 10.1
      vertex 92 58.9719 0.5
      vertex 87 53.9719 10.1
    endloop
  endfacet
  facet normal 0.886914 0 0.461934
    outer loop
      vertex 92 58.9719 0.5
      vertex 87 10 10.1
      vertex 92 5 0.5
    endloop
  endfacet
  facet normal -0.243435 -0.802487 0.544751
    outer loop
      vertex 4.02455 0.0960846 0.5
      vertex 8.08659 5.38062 10.1
      vertex 3.08659 0.380615 0.5
    endloop
  endfacet
  facet normal -0.243442 -0.802484 0.544753
    outer loop
      vertex 8.08659 5.38062 10.1
      vertex 4.02455 0.0960846 0.5
      vertex 9.02455 5.09608 10.1
    endloop
  endfacet
  facet normal -0.773018 0.634384 0
    outer loop
      vertex 0.842667 61.7497 0
      vertex 1.46448 62.5074 0.5
      vertex 1.46448 62.5074 0
    endloop
  endfacet
  facet normal -0.773018 0.634384 0
    outer loop
      vertex 1.46448 62.5074 0.5
      vertex 0.842667 61.7497 0
      vertex 0.842667 61.7497 0.5
    endloop
  endfacet
  facet normal -0.881913 0.471413 0
    outer loop
      vertex 0.380615 60.8853 0
      vertex 0.842667 61.7497 0.5
      vertex 0.842667 61.7497 0
    endloop
  endfacet
  facet normal -0.881913 0.471413 0
    outer loop
      vertex 0.842667 61.7497 0.5
      vertex 0.380615 60.8853 0
      vertex 0.380615 60.8853 0.5
    endloop
  endfacet
  facet normal -0.864822 0.0851918 0.494798
    outer loop
      vertex 0 58.9719 0.5
      vertex 5.09608 54.9473 10.1
      vertex 0.0960846 59.9473 0.5
    endloop
  endfacet
  facet normal -0.864823 0.0851878 0.494797
    outer loop
      vertex 5.09608 54.9473 10.1
      vertex 0 58.9719 0.5
      vertex 5 53.9719 10.1
    endloop
  endfacet
  facet normal -0.995183 0.0980334 0
    outer loop
      vertex 0 58.9719 0
      vertex 0.0960846 59.9473 0.5
      vertex 0.0960846 59.9473 0
    endloop
  endfacet
  facet normal -0.995183 0.0980334 0
    outer loop
      vertex 0.0960846 59.9473 0.5
      vertex 0 58.9719 0
      vertex 0 58.9719 0.5
    endloop
  endfacet
  facet normal -0.290353 0.95692 0
    outer loop
      vertex 4.02455 63.8758 0
      vertex 3.08659 63.5912 0.5
      vertex 4.02455 63.8758 0.5
    endloop
  endfacet
  facet normal -0.290353 0.95692 0
    outer loop
      vertex 3.08659 63.5912 0.5
      vertex 4.02455 63.8758 0
      vertex 3.08659 63.5912 0
    endloop
  endfacet
  facet normal -0.864824 -0.0851836 0.494796
    outer loop
      vertex 0 5 0.5
      vertex 5.09608 9.02455 10.1
      vertex 5 10 10.1
    endloop
  endfacet
  facet normal -0.864823 -0.0851875 0.494797
    outer loop
      vertex 5.09608 9.02455 10.1
      vertex 0 5 0.5
      vertex 0.0960846 4.02455 0.5
    endloop
  endfacet
  facet normal -0.243487 0.802462 0.544765
    outer loop
      vertex 4.02455 63.8758 0.5
      vertex 8.08659 58.5912 10.1
      vertex 9.02455 58.8758 10.1
    endloop
  endfacet
  facet normal -0.243487 0.802462 0.544765
    outer loop
      vertex 8.08659 58.5912 10.1
      vertex 4.02455 63.8758 0.5
      vertex 3.08659 63.5912 0.5
    endloop
  endfacet
  facet normal 0.864819 -0.0852008 0.494802
    outer loop
      vertex 86.9039 9.02455 10.1
      vertex 92 5 0.5
      vertex 87 10 10.1
    endloop
  endfacet
  facet normal 0.864819 -0.0852008 0.494802
    outer loop
      vertex 92 5 0.5
      vertex 86.9039 9.02455 10.1
      vertex 91.9039 4.02455 0.5
    endloop
  endfacet
  facet normal 0.634384 -0.773018 0
    outer loop
      vertex 89.7778 0.842667 0
      vertex 90.5355 1.46448 0.5
      vertex 89.7778 0.842667 0.5
    endloop
  endfacet
  facet normal 0.634384 -0.773018 0
    outer loop
      vertex 90.5355 1.46448 0.5
      vertex 89.7778 0.842667 0
      vertex 90.5355 1.46448 0
    endloop
  endfacet
  facet normal 0.471413 -0.881913 0
    outer loop
      vertex 88.9134 0.380615 0
      vertex 89.7778 0.842667 0.5
      vertex 88.9134 0.380615 0.5
    endloop
  endfacet
  facet normal 0.471413 -0.881913 0
    outer loop
      vertex 89.7778 0.842667 0.5
      vertex 88.9134 0.380615 0
      vertex 89.7778 0.842667 0
    endloop
  endfacet
  facet normal -0.773006 -0.634399 0
    outer loop
      vertex 1.46448 1.46448 0
      vertex 0.842667 2.22215 0.5
      vertex 0.842667 2.22215 0
    endloop
  endfacet
  facet normal -0.773006 -0.634399 0
    outer loop
      vertex 0.842667 2.22215 0.5
      vertex 1.46448 1.46448 0
      vertex 1.46448 1.46448 0.5
    endloop
  endfacet
  facet normal -0.471396 -0.881922 0
    outer loop
      vertex 2.22215 0.842667 0
      vertex 3.08659 0.380615 0.5
      vertex 2.22215 0.842667 0.5
    endloop
  endfacet
  facet normal -0.471396 -0.881922 -0
    outer loop
      vertex 3.08659 0.380615 0.5
      vertex 2.22215 0.842667 0
      vertex 3.08659 0.380615 0
    endloop
  endfacet
  facet normal -0.0851875 -0.864823 0.494797
    outer loop
      vertex 5 0 0.5
      vertex 9.02455 5.09608 10.1
      vertex 4.02455 0.0960846 0.5
    endloop
  endfacet
  facet normal -0.0851836 -0.864824 0.494796
    outer loop
      vertex 9.02455 5.09608 10.1
      vertex 5 0 0.5
      vertex 10 5 10.1
    endloop
  endfacet
  facet normal -0.634399 -0.773006 0
    outer loop
      vertex 1.46448 1.46448 0
      vertex 2.22215 0.842667 0.5
      vertex 1.46448 1.46448 0.5
    endloop
  endfacet
  facet normal -0.634399 -0.773006 -0
    outer loop
      vertex 2.22215 0.842667 0.5
      vertex 1.46448 1.46448 0
      vertex 2.22215 0.842667 0
    endloop
  endfacet
  facet normal -0.802491 0.243426 0.544749
    outer loop
      vertex 0.0960846 59.9473 0.5
      vertex 5.38062 55.8853 10.1
      vertex 0.380615 60.8853 0.5
    endloop
  endfacet
  facet normal -0.802488 0.243433 0.54475
    outer loop
      vertex 5.38062 55.8853 10.1
      vertex 0.0960846 59.9473 0.5
      vertex 5.09608 54.9473 10.1
    endloop
  endfacet
  facet normal -0.956943 0.290276 0
    outer loop
      vertex 0.0960846 59.9473 0
      vertex 0.380615 60.8853 0.5
      vertex 0.380615 60.8853 0
    endloop
  endfacet
  facet normal -0.956943 0.290276 0
    outer loop
      vertex 0.380615 60.8853 0.5
      vertex 0.0960846 59.9473 0
      vertex 0.0960846 59.9473 0.5
    endloop
  endfacet
  facet normal -0.511652 0.623453 0.591201
    outer loop
      vertex 2.22215 63.1292 0.5
      vertex 6.46448 57.5074 10.1
      vertex 7.22215 58.1292 10.1
    endloop
  endfacet
  facet normal -0.511652 0.623453 0.591201
    outer loop
      vertex 6.46448 57.5074 10.1
      vertex 2.22215 63.1292 0.5
      vertex 1.46448 62.5074 0.5
    endloop
  endfacet
  facet normal -0.623458 0.511646 0.5912
    outer loop
      vertex 0.842667 61.7497 0.5
      vertex 6.46448 57.5074 10.1
      vertex 1.46448 62.5074 0.5
    endloop
  endfacet
  facet normal -0.623459 0.511645 0.5912
    outer loop
      vertex 6.46448 57.5074 10.1
      vertex 0.842667 61.7497 0.5
      vertex 5.84267 56.7497 10.1
    endloop
  endfacet
  facet normal -0.956939 -0.290288 0
    outer loop
      vertex 0.380615 3.08659 0
      vertex 0.0960846 4.02455 0.5
      vertex 0.0960846 4.02455 0
    endloop
  endfacet
  facet normal -0.956939 -0.290288 0
    outer loop
      vertex 0.0960846 4.02455 0.5
      vertex 0.380615 3.08659 0
      vertex 0.380615 3.08659 0.5
    endloop
  endfacet
  facet normal -0.995184 -0.0980284 0
    outer loop
      vertex 0.0960846 4.02455 0
      vertex 0 5 0.5
      vertex 0 5 0
    endloop
  endfacet
  facet normal -0.995184 -0.0980284 0
    outer loop
      vertex 0 5 0.5
      vertex 0.0960846 4.02455 0
      vertex 0.0960846 4.02455 0.5
    endloop
  endfacet
  facet normal 0.864818 0.085205 0.494803
    outer loop
      vertex 86.9039 54.9473 10.1
      vertex 92 58.9719 0.5
      vertex 91.9039 59.9473 0.5
    endloop
  endfacet
  facet normal 0.864818 0.085205 0.494803
    outer loop
      vertex 92 58.9719 0.5
      vertex 86.9039 54.9473 10.1
      vertex 87 53.9719 10.1
    endloop
  endfacet
  facet normal 0.802503 0.243403 0.544743
    outer loop
      vertex 86.6194 55.8853 10.1
      vertex 91.9039 59.9473 0.5
      vertex 91.6194 60.8853 0.5
    endloop
  endfacet
  facet normal 0.802503 0.243403 0.544743
    outer loop
      vertex 91.9039 59.9473 0.5
      vertex 86.6194 55.8853 10.1
      vertex 86.9039 54.9473 10.1
    endloop
  endfacet
  facet normal 0.881901 -0.471434 0
    outer loop
      vertex 91.1573 2.22215 0.5
      vertex 91.6194 3.08659 0
      vertex 91.6194 3.08659 0.5
    endloop
  endfacet
  facet normal 0.881901 -0.471434 0
    outer loop
      vertex 91.6194 3.08659 0
      vertex 91.1573 2.22215 0.5
      vertex 91.1573 2.22215 0
    endloop
  endfacet
  facet normal 1 -0 0
    outer loop
      vertex 92 5 0.5
      vertex 92 58.9719 0
      vertex 92 58.9719 0.5
    endloop
  endfacet
  facet normal 1 0 0
    outer loop
      vertex 92 58.9719 0
      vertex 92 5 0.5
      vertex 92 5 0
    endloop
  endfacet
  facet normal 0.511645 -0.623459 0.5912
    outer loop
      vertex 89.7778 0.842667 0.5
      vertex 85.5355 6.46448 10.1
      vertex 84.7778 5.84267 10.1
    endloop
  endfacet
  facet normal 0.511646 -0.623458 0.5912
    outer loop
      vertex 85.5355 6.46448 10.1
      vertex 89.7778 0.842667 0.5
      vertex 90.5355 1.46448 0.5
    endloop
  endfacet
  facet normal 0.243433 -0.802488 0.54475
    outer loop
      vertex 87.9754 0.0960846 0.5
      vertex 83.9134 5.38062 10.1
      vertex 82.9754 5.09608 10.1
    endloop
  endfacet
  facet normal 0.243426 -0.802491 0.544749
    outer loop
      vertex 83.9134 5.38062 10.1
      vertex 87.9754 0.0960846 0.5
      vertex 88.9134 0.380615 0.5
    endloop
  endfacet
  facet normal 0.290276 -0.956943 0
    outer loop
      vertex 87.9754 0.0960846 0
      vertex 88.9134 0.380615 0.5
      vertex 87.9754 0.0960846 0.5
    endloop
  endfacet
  facet normal 0.290276 -0.956943 0
    outer loop
      vertex 88.9134 0.380615 0.5
      vertex 87.9754 0.0960846 0
      vertex 88.9134 0.380615 0
    endloop
  endfacet
  facet normal 0.0980334 -0.995183 0
    outer loop
      vertex 87 0 0
      vertex 87.9754 0.0960846 0.5
      vertex 87 0 0.5
    endloop
  endfacet
  facet normal 0.0980334 -0.995183 0
    outer loop
      vertex 87.9754 0.0960846 0.5
      vertex 87 0 0
      vertex 87.9754 0.0960846 0
    endloop
  endfacet
  facet normal -0.511658 -0.623448 0.591201
    outer loop
      vertex 2.22215 0.842667 0.5
      vertex 6.46448 6.46448 10.1
      vertex 1.46448 1.46448 0.5
    endloop
  endfacet
  facet normal -0.511657 -0.623449 0.591201
    outer loop
      vertex 6.46448 6.46448 10.1
      vertex 2.22215 0.842667 0.5
      vertex 7.22215 5.84267 10.1
    endloop
  endfacet
  facet normal -0.623449 -0.511657 0.591201
    outer loop
      vertex 0.842667 2.22215 0.5
      vertex 6.46448 6.46448 10.1
      vertex 5.84267 7.22215 10.1
    endloop
  endfacet
  facet normal -0.623448 -0.511658 0.591201
    outer loop
      vertex 6.46448 6.46448 10.1
      vertex 0.842667 2.22215 0.5
      vertex 1.46448 1.46448 0.5
    endloop
  endfacet
  facet normal -0.0980284 -0.995184 0
    outer loop
      vertex 4.02455 0.0960846 0
      vertex 5 0 0.5
      vertex 4.02455 0.0960846 0.5
    endloop
  endfacet
  facet normal -0.0980284 -0.995184 -0
    outer loop
      vertex 5 0 0.5
      vertex 4.02455 0.0960846 0
      vertex 5 0 0
    endloop
  endfacet
  facet normal -0.290288 -0.956939 0
    outer loop
      vertex 3.08659 0.380615 0
      vertex 4.02455 0.0960846 0.5
      vertex 3.08659 0.380615 0.5
    endloop
  endfacet
  facet normal -0.290288 -0.956939 -0
    outer loop
      vertex 4.02455 0.0960846 0.5
      vertex 3.08659 0.380615 0
      vertex 4.02455 0.0960846 0
    endloop
  endfacet
  facet normal 0.720831 -0.385332 0.576127
    outer loop
      vertex 86.1573 7.22215 10.1
      vertex 91.6194 3.08659 0.5
      vertex 86.6194 8.08659 10.1
    endloop
  endfacet
  facet normal 0.720831 -0.385332 0.576127
    outer loop
      vertex 91.6194 3.08659 0.5
      vertex 86.1573 7.22215 10.1
      vertex 91.1573 2.22215 0.5
    endloop
  endfacet
  facet normal 0.773012 -0.634391 0
    outer loop
      vertex 90.5355 1.46448 0.5
      vertex 91.1573 2.22215 0
      vertex 91.1573 2.22215 0.5
    endloop
  endfacet
  facet normal 0.773012 -0.634391 0
    outer loop
      vertex 91.1573 2.22215 0
      vertex 90.5355 1.46448 0.5
      vertex 90.5355 1.46448 0
    endloop
  endfacet
  facet normal 0.623453 -0.511652 0.591201
    outer loop
      vertex 85.5355 6.46448 10.1
      vertex 91.1573 2.22215 0.5
      vertex 86.1573 7.22215 10.1
    endloop
  endfacet
  facet normal 0.623453 -0.511652 0.591201
    outer loop
      vertex 91.1573 2.22215 0.5
      vertex 85.5355 6.46448 10.1
      vertex 90.5355 1.46448 0.5
    endloop
  endfacet
  facet normal 0.802498 -0.243412 0.544745
    outer loop
      vertex 86.6194 8.08659 10.1
      vertex 91.9039 4.02455 0.5
      vertex 86.9039 9.02455 10.1
    endloop
  endfacet
  facet normal 0.802498 -0.243412 0.544745
    outer loop
      vertex 91.9039 4.02455 0.5
      vertex 86.6194 8.08659 10.1
      vertex 91.6194 3.08659 0.5
    endloop
  endfacet
  facet normal 0.956948 -0.290259 0
    outer loop
      vertex 91.6194 3.08659 0.5
      vertex 91.9039 4.02455 0
      vertex 91.9039 4.02455 0.5
    endloop
  endfacet
  facet normal 0.956948 -0.290259 0
    outer loop
      vertex 91.9039 4.02455 0
      vertex 91.6194 3.08659 0.5
      vertex 91.6194 3.08659 0
    endloop
  endfacet
  facet normal 0.995182 -0.098044 0
    outer loop
      vertex 91.9039 4.02455 0.5
      vertex 92 5 0
      vertex 92 5 0.5
    endloop
  endfacet
  facet normal 0.995182 -0.098044 0
    outer loop
      vertex 92 5 0
      vertex 91.9039 4.02455 0.5
      vertex 91.9039 4.02455 0
    endloop
  endfacet
endsolid OpenSCAD_Model
